<?xml version="1.0" encoding="UTF-8" standalone="no"?>
<svg
   width="16"
   height="16"
   version="1.1"
   viewBox="0 0 16 16"
   id="svg7"
   sodipodi:docname="applications.svg"
   inkscape:version="1.1.2 (0a00cf5339, 2022-02-04)"
   xmlns:inkscape="http://www.inkscape.org/namespaces/inkscape"
   xmlns:sodipodi="http://sodipodi.sourceforge.net/DTD/sodipodi-0.dtd"
   xmlns="http://www.w3.org/2000/svg"
   xmlns:svg="http://www.w3.org/2000/svg">
  <sodipodi:namedview
     id="namedview9"
     pagecolor="#ffffff"
     bordercolor="#666666"
     borderopacity="1.0"
     inkscape:pageshadow="2"
     inkscape:pageopacity="0.0"
     inkscape:pagecheckerboard="0"
     showgrid="false"
     inkscape:zoom="44.6875"
     inkscape:cx="5.5944056"
     inkscape:cy="8"
     inkscape:window-width="1500"
     inkscape:window-height="963"
     inkscape:window-x="0"
     inkscape:window-y="0"
     inkscape:window-maximized="1"
     inkscape:current-layer="svg7" />
  <defs
     id="defs3">
    <style
       id="current-color-scheme"
       type="text/css">.ColorScheme-Text { color:#363636; }</style>
  </defs>
  <path
     d="M 2,1 C 0.892,1 0,1.892 0,3 v 9 c 0,1.108 0.892,2 2,2 h 12 c 1.108,0 2,-0.892 2,-2 V 3 C 16,1.892 15.108,1 14,1 Z m 0,1 h 12 c 0.554,0 1,0.446 1,1 H 1 C 1,2.446 1.446,2 2,2 Z M 1,3 h 14 v 9 c 0,0.554 -0.446,1 -1,1 H 2 C 1.446,13 1,12.554 1,12 Z"
     style="fill:currentColor"
     class="ColorScheme-Text"
     id="path5"
     sodipodi:nodetypes="sssssssssssccsccssssc" />
  <g
     id="g68"
     transform="translate(0.3993007,0.15314685)">
    <path
       d="M 9.5,4 C 9.223,4 9,4.223 9,4.5 v 2 A 0.499,0.499 0 0 0 9.5,7 h 2 C 11.777,7 12,6.777 12,6.5 v -2 C 12,4.223 11.777,4 11.5,4 Z M 10,5 h 1 v 1 h -1 z"
       fill="#363636"
       id="path2" />
    <path
       d="M 4,6 C 3.446,6 3,6.446 3,7 v 3 c 0,0.554 0.446,1 1,1 h 3 c 0.554,0 1,-0.446 1,-1 V 7 C 8,6.446 7.554,6 7,6 Z m 0,1 h 3 v 3 H 4 Z"
       fill="#363636"
       id="path8" />
  </g>
</svg>
