<svg width="16" height="16" version="1.1" xmlns="http://www.w3.org/2000/svg">
 <path d="m4.4647 3.9648c-0.12775 0-0.2555 0.048567-0.35339 0.14649-0.19578 0.19586-0.19578 0.51116 0 0.70703l3.1816 3.1816-3.1816 3.1816c-0.19578 0.19586-0.19578 0.51116 0 0.70703 0.19578 0.19586 0.51118 0.19586 0.70704 0l3.1816-3.1816 3.1816 3.1816c0.19578 0.19586 0.51114 0.19586 0.70704 0 0.19578-0.19586 0.19578-0.51116 0-0.70703l-3.1816-3.1816 3.1816-3.1816c0.19578-0.19586 0.19578-0.51116 0-0.70703-0.19578-0.19586-0.51118-0.19586-0.70704 0l-3.1816 3.1816-3.1816-3.1816c-0.09789-0.097928-0.22564-0.14649-0.35339-0.14649z" fill="#363636" stroke-linecap="round" stroke-linejoin="round" stroke-width="1.9149" style="paint-order:stroke fill markers"/>
</svg>
